<?xml version="1.0" standalone="no"?>
<!DOCTYPE svg PUBLIC "-//W3C//DTD SVG 20010904//EN"
 "http://www.w3.org/TR/2001/REC-SVG-20010904/DTD/svg10.dtd">
<svg version="1.0" xmlns="http://www.w3.org/2000/svg"
 width="512.000000pt" height="512.000000pt" viewBox="0 0 512.000000 512.000000"
 preserveAspectRatio="xMidYMid meet">
<metadata>
Created by potrace 1.16, written by Peter Selinger 2001-2019
</metadata>
<g transform="translate(0.000000,512.000000) scale(0.100000,-0.100000)"
fill="#000000" stroke="none">
<path d="M919 5091 l-29 -29 0 -159 0 -159 -124 -87 c-139 -97 -158 -124 -136
-191 15 -46 35 -58 190 -105 74 -23 135 -43 137 -45 2 -2 22 -64 45 -137 22
-74 47 -144 55 -156 9 -13 32 -28 52 -34 66 -20 95 1 191 139 l85 122 157 0
c152 0 157 1 186 25 33 28 46 73 32 111 -6 14 -48 76 -93 138 l-84 112 44 129
c53 159 55 203 12 239 -43 37 -83 34 -232 -19 l-127 -45 -122 90 c-110 81
-126 90 -166 90 -35 0 -49 -6 -73 -29z m230 -320 c74 -58 103 -63 194 -32 32
11 57 19 57 17 0 -2 -9 -29 -20 -61 -31 -90 -27 -111 31 -186 16 -20 29 -40
29 -43 0 -3 -32 -6 -71 -6 -39 0 -79 -5 -89 -10 -11 -6 -37 -35 -59 -66 -45
-63 -42 -65 -72 34 -16 55 -41 76 -118 100 l-64 19 56 42 c31 22 61 50 67 60
5 11 10 51 10 90 0 39 3 71 6 71 3 0 23 -13 43 -29z"/>
<path d="M4298 4901 c-108 -43 -192 -123 -229 -219 -32 -80 -32 -214 0 -294
31 -80 106 -159 189 -200 62 -31 73 -33 172 -33 93 0 112 3 162 27 248 116
304 449 106 634 -77 72 -144 98 -258 101 -74 2 -105 -1 -142 -16z m237 -225
c41 -32 75 -95 75 -141 0 -73 -68 -158 -136 -171 -106 -20 -201 42 -220 143
-13 69 35 160 101 189 50 23 136 13 180 -20z"/>
<path d="M2943 4526 c-26 -23 -28 -30 -31 -115 l-4 -91 -74 0 c-87 0 -126 -16
-150 -61 -22 -43 -11 -91 27 -123 27 -23 39 -26 115 -26 l84 0 0 -86 c0 -84 1
-87 34 -120 26 -26 42 -34 71 -34 29 0 45 8 71 34 33 33 34 36 34 120 l0 86
80 0 c94 0 124 11 145 55 19 41 19 58 0 95 -23 44 -63 60 -149 60 l-74 0 -4
91 c-3 85 -5 92 -31 115 -20 17 -40 24 -72 24 -32 0 -52 -7 -72 -24z"/>
<path d="M1624 4070 c-34 -13 -54 -50 -54 -97 0 -36 7 -50 56 -105 115 -131
192 -274 235 -435 22 -82 40 -349 23 -342 -5 2 -49 24 -99 48 -109 52 -265
106 -359 122 -38 6 -118 10 -180 7 -99 -4 -119 -8 -178 -35 -80 -38 -145 -95
-180 -160 -15 -26 -219 -653 -454 -1393 -460 -1448 -456 -1431 -420 -1525 22
-56 85 -119 141 -141 94 -36 77 -40 1525 420 740 235 1367 439 1393 454 65 35
122 100 160 180 28 61 32 78 35 189 6 174 -32 327 -131 532 -23 47 -44 90 -46
95 -7 17 260 -1 342 -23 161 -43 304 -120 435 -235 56 -50 68 -56 107 -56 62
0 95 30 102 94 l6 47 -64 63 c-160 156 -398 273 -629 311 -100 16 -293 19
-372 6 l-48 -8 -74 101 c-40 56 -113 145 -160 199 -47 55 -86 102 -86 105 0 3
96 103 214 222 220 221 238 246 221 302 -18 59 -82 90 -140 68 -17 -6 -125
-105 -240 -221 -116 -115 -213 -209 -217 -209 -3 0 -51 39 -105 86 -54 48
-142 118 -195 157 l-97 70 6 151 c7 172 -5 282 -43 414 -51 176 -160 368 -279
490 -52 53 -66 62 -95 61 -19 0 -45 -4 -56 -9z m-214 -1022 c79 -15 211 -63
310 -113 134 -68 128 -58 91 -146 -38 -92 -110 -203 -185 -287 -51 -57 -56
-67 -56 -108 0 -62 40 -104 99 -104 35 0 49 7 87 42 72 67 160 191 218 309
l54 109 88 -69 c49 -38 118 -96 154 -129 l65 -61 -191 -193 c-106 -106 -197
-203 -203 -215 -47 -92 50 -189 142 -142 12 6 109 97 215 203 l193 191 61 -65
c33 -36 91 -105 129 -154 l69 -88 -109 -54 c-118 -58 -242 -146 -309 -218 -35
-38 -42 -52 -42 -87 0 -59 42 -99 104 -99 41 0 51 5 108 56 84 75 195 147 287
185 88 37 78 43 147 -95 92 -180 138 -366 122 -490 -36 -280 -426 -240 -927
95 -171 114 -200 122 -252 70 -23 -24 -29 -38 -29 -73 0 -24 7 -53 15 -65 39
-55 435 -293 562 -337 33 -11 24 -15 -254 -103 -158 -50 -651 -206 -1094 -347
-443 -141 -815 -256 -825 -256 -25 0 -44 18 -44 43 0 11 156 511 347 1113 331
1041 348 1092 360 1060 43 -125 282 -523 336 -561 12 -8 41 -15 65 -15 35 0
49 6 73 29 52 52 44 81 -70 252 -253 379 -342 696 -238 850 53 79 155 100 327
67z"/>
<path d="M1564 1704 c-61 -30 -74 -116 -25 -165 58 -58 159 -29 176 51 10 44
-18 98 -59 115 -44 19 -53 18 -92 -1z"/>
<path d="M3527 3683 c-200 -198 -237 -243 -237 -285 0 -84 83 -133 158 -94 15
8 114 102 220 209 l192 194 0 47 c0 39 -5 53 -29 77 -24 24 -38 29 -77 29
l-47 0 -180 -177z"/>
<path d="M4220 3206 c-44 -25 -50 -50 -53 -236 l-2 -174 -135 -96 c-165 -117
-186 -152 -140 -227 17 -29 33 -36 152 -73 226 -70 195 -42 251 -220 26 -85
54 -165 62 -177 17 -25 73 -44 107 -36 36 9 54 29 150 165 l90 127 185 3 185
3 24 28 c17 20 24 40 24 72 0 40 -9 56 -101 179 l-101 136 51 152 c28 84 51
167 51 185 0 40 -40 88 -79 96 -21 4 -77 -10 -191 -48 l-162 -54 -136 101
c-144 107 -182 122 -232 94z m297 -404 c33 -18 72 -15 153 13 40 14 75 25 76
25 2 0 -10 -38 -26 -84 -17 -50 -26 -94 -23 -112 3 -16 30 -62 60 -102 l54
-73 -100 3 c-116 2 -122 -1 -194 -107 l-41 -59 -26 79 c-15 44 -30 88 -34 97
-9 20 -51 41 -133 65 -35 10 -63 20 -63 23 0 3 29 25 65 49 90 61 95 72 95
186 l0 96 58 -44 c31 -24 67 -49 79 -55z"/>
<path d="M4314 1381 c-50 -22 -72 -111 -39 -157 20 -30 68 -47 108 -40 82 15
110 124 47 181 -22 20 -86 29 -116 16z"/>
<path d="M4603 1132 c-29 -22 -43 -70 -43 -149 l0 -63 -69 0 c-118 0 -161 -29
-161 -110 0 -33 6 -48 29 -71 28 -27 34 -29 114 -29 l85 0 3 -84 c3 -67 8 -91
25 -113 39 -52 113 -55 160 -8 22 22 24 32 24 115 l0 90 91 0 c87 0 92 1 120
29 41 41 41 98 0 143 -28 32 -32 33 -120 36 l-91 4 0 87 c0 83 -2 89 -28 114
-34 33 -103 37 -139 9z"/>
</g>
</svg>
