<?xml version="1.0" standalone="no"?>
<!DOCTYPE svg PUBLIC "-//W3C//DTD SVG 20010904//EN"
 "http://www.w3.org/TR/2001/REC-SVG-20010904/DTD/svg10.dtd">
<svg version="1.0" xmlns="http://www.w3.org/2000/svg"
 width="512.000000pt" height="512.000000pt" viewBox="0 0 512.000000 512.000000"
 preserveAspectRatio="xMidYMid meet">
<metadata>
Created by potrace 1.16, written by Peter Selinger 2001-2019
</metadata>
<g transform="translate(0.000000,512.000000) scale(0.100000,-0.100000)"
fill="#000000" stroke="none">
<path d="M676 5099 c-43 -10 -107 -33 -142 -49 -54 -26 -65 -36 -73 -66 -6
-22 -6 -45 -1 -59 5 -13 104 -121 221 -240 l212 -215 -92 0 c-208 0 -382 -65
-552 -204 -85 -71 -151 -157 -206 -272 -45 -95 -51 -126 -32 -167 20 -44 42
-47 360 -47 l301 0 -69 -74 c-155 -166 -232 -363 -233 -594 0 -141 55 -332
112 -386 60 -56 58 -57 470 349 204 201 372 364 374 363 1 -2 -6 -61 -17 -133
-80 -546 -266 -1094 -538 -1580 -62 -110 -266 -427 -315 -488 -14 -18 -17 -18
-108 2 -111 25 -255 51 -285 51 -23 0 -21 7 -38 -134 l-6 -43 58 -7 c55 -6
189 -32 226 -42 16 -5 15 -8 -8 -35 l-25 -30 64 -55 c36 -30 69 -54 74 -54 12
0 100 107 201 245 525 715 828 1524 916 2446 6 62 9 69 54 113 l47 46 33 -34
33 -34 -12 -113 c-101 -981 -432 -1921 -973 -2758 -54 -84 -95 -156 -90 -160
89 -62 133 -91 140 -91 7 0 62 80 157 232 l37 58 67 -34 c215 -108 477 -290
657 -457 45 -41 130 -127 190 -191 60 -65 113 -118 118 -118 5 0 37 23 72 52
55 46 62 55 53 72 -20 37 -373 383 -457 447 l-83 64 1776 3 1776 2 0 90 0 90
-1910 0 -1911 0 -116 65 c-64 35 -122 66 -127 68 -6 2 13 48 42 103 384 713
639 1485 737 2229 8 66 18 133 21 149 6 27 23 12 403 -367 257 -257 405 -398
423 -402 68 -17 109 25 151 152 53 163 57 314 12 490 -37 140 -97 246 -210
371 l-57 62 305 0 c291 0 305 1 330 20 41 33 44 76 9 158 -107 256 -361 458
-632 501 -36 6 -105 11 -155 11 l-89 0 222 223 c206 207 222 226 222 259 0 51
-29 80 -107 111 -109 42 -188 57 -314 57 -261 0 -446 -85 -650 -298 l-96 -100
-82 88 c-200 218 -404 311 -673 309 -76 0 -139 -7 -192 -20z m404 -187 c36
-12 94 -38 129 -59 70 -42 243 -204 284 -268 l26 -40 -25 -79 c-13 -43 -27
-104 -31 -136 l-6 -58 -51 39 c-28 22 -87 57 -131 79 -74 36 -98 57 -324 284
-239 239 -244 245 -215 251 16 4 34 9 39 11 6 2 62 2 125 0 82 -2 134 -10 180
-24z m1438 14 c8 -5 -63 -85 -225 -253 -213 -219 -245 -248 -302 -274 -103
-48 -195 -114 -276 -201 l-75 -81 0 91 c0 122 13 179 67 292 41 85 57 107 157
206 135 135 232 194 371 224 47 11 265 8 283 -4z m-1403 -670 c94 -32 174 -79
244 -142 89 -80 88 -82 -37 -76 -121 5 -228 -12 -339 -54 -65 -24 -69 -24
-409 -24 l-343 0 21 37 c40 67 153 168 238 212 130 68 197 81 385 78 144 -3
168 -6 240 -31z m1487 15 c80 -21 156 -55 223 -101 68 -47 185 -175 185 -202
0 -5 -155 -8 -345 -8 -286 0 -351 3 -375 15 -78 40 -182 59 -327 60 -79 0
-143 3 -143 6 0 17 136 132 195 164 117 66 192 82 376 84 104 1 153 -3 211
-18z m-1188 -424 l49 -12 -444 -437 c-406 -400 -445 -435 -453 -415 -5 12 -10
76 -10 142 0 105 3 131 27 202 37 111 106 211 226 326 153 146 290 206 476
205 44 0 102 -5 129 -11z m697 -6 c151 -39 284 -125 405 -266 139 -159 200
-346 174 -531 -7 -46 -15 -84 -18 -84 -4 0 -204 197 -445 438 l-437 437 47 12
c75 18 191 15 274 -6z"/>
<path d="M3650 2729 c-199 -23 -378 -115 -522 -268 -161 -170 -237 -384 -225
-631 11 -220 89 -395 250 -558 239 -243 613 -315 938 -181 218 89 399 285 478
516 53 158 54 371 2 533 -86 267 -302 480 -566 559 -62 18 -225 43 -265 40 -8
-1 -49 -5 -90 -10z m250 -190 c74 -14 223 -87 286 -141 369 -313 310 -878
-116 -1116 -137 -77 -336 -98 -495 -53 -349 98 -562 461 -475 807 33 130 82
217 180 315 121 122 243 180 425 203 38 4 123 -2 195 -15z"/>
<path d="M1020 430 l0 -90 90 0 90 0 0 90 0 90 -90 0 -90 0 0 -90z"/>
<path d="M2900 430 l0 -90 855 0 855 0 0 90 0 90 -855 0 -855 0 0 -90z"/>
<path d="M510 260 l0 -90 90 0 90 0 0 90 0 90 -90 0 -90 0 0 -90z"/>
<path d="M3260 90 l0 -90 495 0 495 0 0 90 0 90 -495 0 -495 0 0 -90z"/>
</g>
</svg>
